{"title":"Singham Returns (2014) - 720p - DVDRip - Hindi - x264 - AC3 - 5.","uid":11122165,"size":1181754199,"categoryP":"video","categoryS":"hd___movies","magnet":"?xt=urn:btih:4045c96139a64d14be5ce044da4b6d4ba719a6b0&amp;dn=Singham+Returns+%282014%29+-+720p+-+DVDRip+-+Hindi+-+x264+-+AC3+-+5.&amp;tr=udp%3A%2F%2Ftracker.openbittorrent.com%3A80&amp;tr=udp%3A%2F%2Fopen.demonii.com%3A1337&amp;tr=udp%3A%2F%2Ftracker.coppersurfer.tk%3A6969&amp;tr=udp%3A%2F%2Fexodus.desync.com%3A6969","seeders":3,"leechers":2,"uploader":"inovai","files":3,"time":1411932406,"description":"Singham Returns (2014) - 720p - DVDRip - Hindi - x264 - AC3 - 5.1 - Mafiaking - TeamTNT\n\nCover:\n &lt;a href=&quot;\nhttp://forum.primetimeshow.in/viewtopic.php?f=7&amp;t=586&quot; rel=&quot;nofollow&quot; target=&quot;_NEW&quot;&gt;\nhttp://forum.primetimeshow.in/viewtopic.php?f=7&amp;t=586&lt;/a&gt;\n\nIMDB Rating: 6.2/10.0\n\n\nGENRE: Action\n\nScreenshots:\n &lt;a href=&quot;\nhttp://m.primetimeshow.in/share-F545_54284367.html&quot; rel=&quot;nofollow&quot; target=&quot;_NEW&quot;&gt;\nhttp://m.primetimeshow.in/share-F545_54284367.html&lt;/a&gt;\n &lt;a href=&quot;\nhttp://m.primetimeshow.in/share-DF1C_54284367.html&quot; rel=&quot;nofollow&quot; target=&quot;_NEW&quot;&gt;\nhttp://m.primetimeshow.in/share-DF1C_54284367.html&lt;/a&gt;\n &lt;a href=&quot;\nhttp://m.primetimeshow.in/share-0C1A_54284367.html&quot; rel=&quot;nofollow&quot; target=&quot;_NEW&quot;&gt;\nhttp://m.primetimeshow.in/share-0C1A_54284367.html&lt;/a&gt;\n &lt;a href=&quot;\nhttp://m.primetimeshow.in/share-0543_54284367.html&quot; rel=&quot;nofollow&quot; target=&quot;_NEW&quot;&gt;\nhttp://m.primetimeshow.in/share-0543_54284367.html&lt;/a&gt;\n &lt;a href=&quot;\nhttp://m.primetimeshow.in/share-C1A5_54284367.html&quot; rel=&quot;nofollow&quot; target=&quot;_NEW&quot;&gt;\nhttp://m.primetimeshow.in/share-C1A5_54284367.html&lt;/a&gt;\n\nGeneral\nUnique ID : 186460497618663365886195018035999047898 (0x8C46FC4F07DC523196474694DDBC80DA)\nComplete name : Singham Returns (2014) - 720p - DVDRip - Hindi - x264 - AC3 - 5.1 - Mafiaking - TeamTNT.mkv\nFormat : Matroska\nFormat version : Version 4 / Version 2\nFile size : 1.09 GiB\nDuration : 2h 19mn\nOverall bit rate : 1 126 Kbps\nMovie name : Singham Returns (2014) - 720p - DVDRip - Hindi - x264 - AC3 - 5.1 - Mafiaking - TeamTNT\nEncoded date : UTC 2014-09-28 09:23:18\nWriting application : mkvmerge v7.0.0 ('Where We Going') 64bit built on Jun 9 2014 15:16:27\nWriting library : libebml v1.3.0 + libmatroska v1.4.1\n\n\nVideo\nID : 1\nFormat : AVC\nFormat/Info : Advanced Video Codec\nFormat profile : &lt;a class=&quot;__cf_email__&quot; href=&quot;/cdn-cgi/l/email-protection&quot; data-cfemail=&quot;a3ebcac4cbe3ef978d92&quot;&gt;[email&amp;#160;protected]&lt;/a&gt;&lt;script data-cfhash='f9e31' type=&quot;text/javascript&quot;&gt;\n/* &lt;![CDATA[ */!function(){try{var t=&quot;currentScript&quot;in document?document.currentScript:function(){for(var t=document.getElementsByTagName(&quot;script&quot;),e=t.length;e--;)if(t[e].getAttribute(&quot;data-cfhash&quot;))return t[e]}();if(t&amp;&amp;t.previousSibling){var e,r,n,i,c=t.previousSibling,a=c.getAttribute(&quot;data-cfemail&quot;);if(a){for(e=&quot;&quot;,r=parseInt(a.substr(0,2),16),n=2;a.length-n;n+=2)i=parseInt(a.substr(n,2),16)^r,e+=String.fromCharCode(i);e=document.createTextNode(e),c.parentNode.replaceChild(e,c)}t.parentNode.removeChild(t);}}catch(u){}}()/* ]]&gt; */&lt;/script&gt;\nFormat settings, CABAC : Yes\nFormat settings, ReFrames : 4 frames\nCodec ID : V_MPEG4/ISO/AVC\nDuration : 2h 19mn\nBit rate : 900 Kbps\nWidth : 1 280 pixels\nHeight : 544 pixels\nDisplay aspect ratio : 2.35:1\nFrame rate mode : Constant\nFrame rate : 23.976 fps\nColor space : YUV\nChroma subsampling : 4:2:0\nBit depth : 8 bits\nScan type : Progressive\nBits/(Pixel*Frame) : 0.054\nStream size : 875 MiB (78%)\nTitle : Mafiaking\nLanguage : Hindi\nDefault : Yes\nForced : No\n\n\nAudio\nID : 2\nFormat : AC-3\nFormat/Info : Audio Coding 3\nMode extension : CM (complete main)\nFormat settings, Endianness : Big\nCodec ID : A_AC3\nDuration : 2h 19mn\nBit rate mode : Constant\nBit rate : 224 Kbps\nChannel(s) : 6 channels\nChannel positions : Front: L C R, Side: L R, LFE\nSampling rate : 48.0 KHz\nBit depth : 16 bits\nCompression mode : Lossy\nStream size : 223 MiB (20%)\nTitle : Mafiaking\nLanguage : Hindi\nDefault : Yes\nForced : No\n\nSAMPLE WITH IN TORRENT\n\nThanks to Mafiaking - TeamTNT!!\n\nSeed n ENjoy!!","torrent":{"xt":"urn:btih:4045c96139a64d14be5ce044da4b6d4ba719a6b0","amp;dn":"Singham+Returns+%282014%29+-+720p+-+DVDRip+-+Hindi+-+x264+-+AC3+-+5.","amp;tr":["udp%3A%2F%2Ftracker.openbittorrent.com%3A80","udp%3A%2F%2Fopen.demonii.com%3A1337","udp%3A%2F%2Ftracker.coppersurfer.tk%3A6969","udp%3A%2F%2Fexodus.desync.com%3A6969"],"infoHash":"4045c96139a64d14be5ce044da4b6d4ba719a6b0","infoHashBuffer":{"type":"Buffer","data":[64,69,201,97,57,166,77,20,190,92,224,68,218,75,109,75,167,25,166,176]},"announce":[],"urlList":[]}}